<?xml version="1.0" encoding="UTF-8"?>
<svg width="49px" height="34px" viewBox="0 0 49 34" version="1.1" xmlns="http://www.w3.org/2000/svg" xmlns:xlink="http://www.w3.org/1999/xlink">
    <!-- Generator: Sketch 53.2 (72643) - https://sketchapp.com -->
    <title>Artboard</title>
    <desc>Created with Sketch.</desc>
    <g id="Artboard" stroke="none" stroke-width="1" fill="none" fill-rule="evenodd">
        <g id="logo">
            <polygon id="Fill-1" fill="#FFFFFE" points="22.257633 0 7.80895704 5.88949953 0 23.2540072 20.4609031 32.3406079 25.8133474 27.5815476 42.3947538 34 45.4872675 29.1179576 45.4872675 14.9514172 49 11.1792449 49 5.48287918"></polygon>
            <polyline id="Fill-2" fill="#2A2A2A" points="48.3797468 6.18181818 38.4556962 15.0488646 38.4556962 21.5047849 42.6797209 16.9540972 42.6797209 32.1454545 44.9191933 28.598422 44.9191933 14.5416871 48.3797468 10.8133974 48.3797468 6.18181818"></polyline>
            <polygon id="Fill-3" fill="#D24C44" points="22.5205922 0.618181818 48.3797468 5.96105926 38.1997141 14.8363636 8.6835443 6.30209863"></polygon>
            <path d="M38.1997141,14.8363636 L38.1418904,14.8200712 L8.06329114,6.33941148 L22.2403625,0.618181818 L22.2728747,0.624827431 L48.3797468,5.92395348 L38.1997141,14.8363636 Z M8.7266276,6.30339655 L38.1442906,14.5977647 L47.9106108,6.04764764 L22.2613099,0.841560165 L8.7266276,6.30339655 L8.7266276,6.30339655 Z" id="Fill-4" fill="#1A1919"></path>
            <polygon id="Fill-5" fill="#BFC0BF" points="37.8241816 15.1999518 26.4661225 12.0838298 26.4661225 18.1173001 37.835443 21.9216916 37.835443 15.0011329"></polygon>
            <polyline id="Fill-6" fill="#BFC0BF" points="20.4683544 21.6363636 20.4683544 31.5272727 25.4303797 26.9977669 25.4303797 23.4682122 20.4683544 21.6363636"></polyline>
            <polygon id="Fill-7" fill="#BFC0BF" points="26.0506329 18.9537306 26.0506329 23.3680895 30.6238959 19.9011008 26.0506329 18.4784132"></polygon>
            <polygon id="Fill-8" fill="#BFC0BF" points="31.1127251 20.0909091 26.0506329 23.8851223 26.0506329 23.2966014 26.0506329 23.0837366 26.0506329 26.5762941 42.1772152 32.7636364 42.1772152 18.1798486 38.1455696 22.6735394"></polygon>
            <path d="M7.97299724,6.8 L0.620253165,22.77923 L7.53793913,25.7837212 L7.53793913,21.550515 L7.97474446,21.6706946 L7.97474446,25.9734227 L13.6455696,28.4363636 L13.6455696,8.37166152 L7.97299724,6.8 Z M8.90011655,15.0112161 L8.90011655,11.4265985 L9.33692187,11.5467781 L9.33692187,15.1313957 L8.90011655,15.0112161 L8.90011655,15.0112161 Z" id="Fill-9" fill="#2A2A2A"></path>
            <path d="M14.2658228,8.65454545 L14.2658228,28.9562228 L20.0321045,31.5272727 L20.0321045,21.2148619 L26.0506329,23.3680895 L26.0506329,11.9875067 L14.2658228,8.65454545 Z M20.4801855,17.9774334 L20.0511946,17.8562542 L20.0511946,14.1073941 L20.4801855,14.2285732 L20.4801855,17.9774334 L20.4801855,17.9774334 Z" id="Fill-10" fill="#2A2A2A"></path>
            <polygon id="Fill-11" fill="#1A1919" points="20.4683544 9.73164894 32.5449795 2.88749138 33.1026602 3.00161392 21.058077 9.89090909"></polygon>
            <polygon id="Fill-12" fill="#1A1919" points="22.9493671 2.9444015 26.0769107 1.39870458 26.9857371 1.5980753 23.6669593 3.09090909"></polygon>
            <polyline id="Fill-13" fill="#1A1919" points="14.2612303 8.03636364 13.6455696 7.83899305 17.9501945 5.56363636 18.6075949 5.7493409 14.2612303 8.03636364"></polyline>
            <polygon id="Fill-14" fill="#1A1919" points="34.1139241 6.02532226 37.7194519 3.75701904 38.3775635 3.89323425 34.7293909 6.18181818"></polygon>
            <polygon id="Fill-15" fill="#1A1919" points="26.377018 11.2945862 25.8332131 11.1555313 30.4309299 8.03636364 31.0126582 8.20011723 26.6325863 11.1272727"></polygon>
            <polygon id="Fill-16" fill="#1A1919" points="35.9746835 10.3613388 39.7595634 7.41818182 40.3164557 7.55451461 36.5108484 10.5090909"></polygon>
        </g>
    </g>
</svg>