<?xml version="1.0" encoding="UTF-8"?>
<svg width="69px" height="69px" viewBox="0 0 69 69" version="1.1" xmlns="http://www.w3.org/2000/svg" xmlns:xlink="http://www.w3.org/1999/xlink">
    <!-- Generator: Sketch 53.2 (72643) - https://sketchapp.com -->
    <title>Artboard</title>
    <desc>Created with Sketch.</desc>
    <g id="Artboard" stroke="none" stroke-width="1" fill="none" fill-rule="evenodd">
        <path d="M35.383791,33.2236901 C35.703282,32.9188461 36.2217013,32.9188461 36.5351641,33.2236901 C38.4882786,35.0872652 38.4882786,38.1242024 36.5351641,39.9877775 L29.6028131,46.6023187 C28.6262559,47.5341062 27.3422639,48 26.0582719,48 C24.77428,48 23.490288,47.5341062 22.5137307,46.6023187 L21.470864,45.6072616 C20.5184193,44.7042329 20,43.502112 20,42.2252179 C20,40.9483239 20.5244474,39.7462029 21.470864,38.8431743 L28.403215,32.2286331 C28.722706,31.923789 29.2350971,31.923789 29.5545881,32.2286331 C29.874079,32.5334771 29.874079,33.022378 29.5545881,33.3272221 L22.6222371,39.9417633 C21.3020764,41.201402 21.3020764,43.2490339 22.6222371,44.5086726 L23.6651038,45.5037297 C24.9852646,46.7633684 27.1312793,46.7633684 28.4514401,45.5037297 L35.383791,38.8891885 C36.7039518,37.6295497 36.7039518,35.5819179 35.383791,34.3222791 C35.0643001,34.0174351 35.0643001,33.5285342 35.383791,33.2236901 Z M47.5346734,24.3925234 C48.481407,25.2954709 49,26.4974838 49,27.7742631 C49,29.0510424 48.4753769,30.2530554 47.5286432,31.1560029 L40.5939698,37.7699497 C40.4371859,37.9252336 40.2261307,38 40.0211055,38 C39.8160804,38 39.6050251,37.9194824 39.4482412,37.7699497 C39.1286432,37.465133 39.1286432,36.9762761 39.4482412,36.6714594 L46.3829146,30.0575126 C47.7035176,28.7979871 47.7035176,26.7505392 46.3829146,25.4910137 L45.3396985,24.496046 C44.0190955,23.2365205 41.8723618,23.2365205 40.5517588,24.496046 L33.6170854,31.1099928 C32.2964824,32.3695183 32.2964824,34.4169662 33.6170854,35.6764917 C33.9366834,35.9813084 33.9366834,36.4701653 33.6170854,36.774982 C33.2974874,37.0797987 32.7849246,37.0797987 32.4653266,36.774982 C30.5115578,34.9115744 30.5115578,31.8749101 32.4653266,30.0115025 L39.4,23.3975557 C41.3537688,21.5341481 44.5376884,21.5341481 46.4914573,23.3975557 L47.5346734,24.3925234 Z" id="link" fill="#898A8B" fill-rule="nonzero"></path>
    </g>
</svg>